<?xml version="1.0" standalone="no"?>
<!DOCTYPE svg PUBLIC "-//W3C//DTD SVG 20010904//EN"
 "http://www.w3.org/TR/2001/REC-SVG-20010904/DTD/svg10.dtd">
<svg version="1.0" xmlns="http://www.w3.org/2000/svg"
 width="512.000000pt" height="512.000000pt" viewBox="0 0 512.000000 512.000000"
 preserveAspectRatio="xMidYMid meet">

<g transform="translate(0.000000,512.000000) scale(0.100000,-0.100000)"
fill="#000000" stroke="none">
<path d="M1310 4567 c-1049 -421 -1227 -496 -1237 -517 -18 -37 -18 -2943 0
-2980 10 -21 188 -96 1237 -517 674 -270 1234 -492 1245 -492 35 -2 2468 976
2488 1000 16 20 17 106 17 1493 0 1153 -3 1476 -13 1496 -10 21 -188 96 -1237
517 -674 270 -1236 491 -1250 491 -14 0 -576 -221 -1250 -491z m2358 -117
c596 -238 1080 -436 1075 -441 -19 -18 -568 -230 -586 -225 -39 10 -2137 880
-2137 886 0 11 524 219 545 216 11 -1 507 -197 1103 -436z m-790 -315 c584
-241 1062 -442 1062 -445 0 -7 -237 -103 -254 -103 -9 0 -1887 794 -2086 881
l-45 20 37 16 c123 53 186 75 204 73 11 -2 498 -201 1082 -442z m-483 -180
c567 -240 1041 -442 1055 -447 22 -8 -34 -33 -432 -193 l-458 -183 -1087 435
c-599 239 -1091 438 -1096 442 -10 10 943 392 968 387 11 -2 484 -200 1050
-441z m-1032 -520 l1117 -447 0 -1364 0 -1364 -32 13 c-18 7 -527 211 -1130
452 l-1098 439 0 1364 c0 1087 3 1363 13 1359 6 -3 515 -206 1130 -452z m3537
-908 l0 -1363 -1097 -439 c-604 -241 -1113 -445 -1130 -452 l-33 -13 0 1363 0
1363 468 187 c257 102 475 189 485 193 16 6 17 -14 17 -335 l0 -342 25 -24
c13 -14 35 -25 49 -25 38 0 539 173 558 193 1 1 5 181 8 401 l5 398 320 129
c176 70 321 128 323 129 1 0 2 -613 2 -1363z m-813 416 c-2 -2 -74 -28 -160
-58 l-157 -55 0 304 0 304 158 63 157 64 3 -309 c1 -170 1 -311 -1 -313z"/>
</g>
</svg>
