<?xml version="1.0" standalone="no"?>
<!DOCTYPE svg PUBLIC "-//W3C//DTD SVG 20010904//EN"
 "http://www.w3.org/TR/2001/REC-SVG-20010904/DTD/svg10.dtd">
<svg version="1.0" xmlns="http://www.w3.org/2000/svg"
 width="512.000000pt" height="512.000000pt" viewBox="0 0 512.000000 512.000000"
 preserveAspectRatio="xMidYMid meet">

<g transform="translate(0.000000,512.000000) scale(0.100000,-0.100000)"
fill="#000000" stroke="none">
<path d="M1087 4946 c-85 -32 -153 -99 -183 -183 -9 -26 -13 -89 -14 -195 l0
-158 -129 0 c-99 0 -144 -4 -190 -19 -152 -47 -264 -167 -306 -328 -23 -86
-23 -3470 0 -3556 43 -165 165 -291 320 -332 52 -13 281 -15 1975 -15 1694 0
1923 2 1975 15 155 41 277 167 320 332 23 86 23 3470 0 3556 -39 152 -143 269
-285 323 -31 12 -90 19 -190 23 l-145 6 -5 170 c-6 189 -15 219 -85 290 -68
68 -105 80 -240 80 -114 0 -123 -1 -173 -30 -59 -32 -91 -66 -125 -129 -19
-36 -23 -61 -27 -211 l-5 -170 -342 -3 -341 -2 -4 162 c-3 155 -4 166 -31 220
-34 69 -101 131 -164 152 -62 21 -205 21 -266 0 -64 -22 -139 -91 -168 -156
-21 -47 -24 -71 -27 -216 l-4 -162 -341 2 -342 3 -5 170 c-4 150 -8 175 -27
211 -34 64 -66 97 -125 129 -48 27 -64 30 -158 32 -72 2 -117 -1 -143 -11z
m249 -161 c63 -48 64 -57 64 -432 0 -310 -2 -341 -19 -373 -32 -61 -72 -80
-165 -80 -99 0 -138 19 -166 83 -18 39 -20 68 -20 372 0 323 1 332 23 375 32
65 89 93 179 87 54 -3 75 -10 104 -32z m1332 10 c17 -10 40 -35 51 -55 20 -36
21 -51 21 -386 0 -331 -1 -351 -20 -382 -33 -53 -74 -72 -160 -72 -86 0 -127
19 -160 72 -19 31 -20 51 -20 383 0 339 1 351 21 385 26 41 44 56 84 70 44 14
148 5 183 -15z m1332 3 c33 -17 51 -35 68 -68 21 -43 22 -52 22 -375 0 -304
-2 -333 -20 -372 -28 -64 -67 -83 -166 -83 -93 0 -133 19 -165 80 -17 32 -19
63 -19 373 0 373 2 385 61 430 40 29 57 34 124 36 35 1 65 -6 95 -21z m-3110
-668 c0 -177 15 -225 95 -298 68 -63 123 -82 232 -82 138 0 232 49 289 152 28
51 29 60 34 208 l5 155 342 3 341 2 4 -147 c3 -138 5 -152 31 -205 30 -61 74
-105 140 -140 37 -20 57 -23 157 -23 105 0 119 2 166 27 60 31 109 84 138 147
17 39 21 70 24 194 l4 147 341 -2 342 -3 5 -155 c4 -137 8 -160 28 -198 58
-108 156 -162 296 -162 108 0 163 19 231 82 80 73 95 121 95 300 l0 140 128
-4 c157 -5 208 -24 281 -104 78 -85 81 -102 81 -436 l0 -288 -2160 0 -2160 0
0 288 c0 331 3 350 77 432 77 86 137 107 306 109 l107 1 0 -140z m3830 -2208
c0 -1537 6 -1420 -76 -1511 -26 -29 -69 -62 -102 -78 l-57 -28 -1925 0 -1925
0 -53 24 c-66 30 -144 113 -166 177 -14 43 -16 186 -16 1416 l0 1368 2160 0
2160 0 0 -1368z"/>
<path d="M893 2863 c-52 -10 -53 -19 -53 -414 0 -346 1 -368 19 -390 l19 -24
377 0 377 0 19 24 c18 22 19 44 19 391 0 347 -1 369 -19 391 l-19 24 -359 1
c-197 1 -368 0 -380 -3z m635 -415 l2 -268 -270 0 -270 0 0 270 0 270 268 -2
267 -3 3 -267z"/>
<path d="M2190 2857 c-49 -25 -50 -36 -48 -419 3 -357 3 -357 26 -380 l23 -23
369 0 369 0 23 23 23 23 0 369 0 369 -23 23 c-23 23 -23 23 -380 26 -274 2
-363 -1 -382 -11z m640 -407 l0 -270 -270 0 -270 0 0 270 0 270 270 0 270 0 0
-270z"/>
<path d="M3494 2856 c-17 -8 -34 -21 -38 -31 -3 -9 -6 -180 -6 -380 0 -342 1
-364 19 -386 l19 -24 377 0 377 0 19 24 c18 22 19 44 19 391 0 347 -1 369 -19
391 l-19 24 -359 2 c-285 2 -364 0 -389 -11z m636 -406 l0 -270 -270 0 -270 0
0 263 c0 145 3 267 7 270 3 4 125 7 270 7 l263 0 0 -270z"/>
<path d="M860 1540 c-19 -19 -20 -33 -20 -390 l0 -371 25 -24 24 -25 366 0
366 0 24 25 25 24 0 371 c0 357 -1 371 -20 390 -19 19 -33 20 -395 20 -362 0
-376 -1 -395 -20z m668 -392 l2 -268 -270 0 -270 0 0 270 0 270 268 -2 267 -3
3 -267z"/>
<path d="M2164 1539 c-18 -20 -19 -43 -22 -368 -3 -373 0 -410 43 -429 36 -17
714 -17 750 0 43 19 46 56 43 429 -3 325 -4 348 -22 368 -19 21 -26 21 -396
21 -370 0 -377 0 -396 -21z m666 -389 l0 -270 -270 0 -270 0 0 270 0 270 270
0 270 0 0 -270z"/>
<path d="M3470 1540 c-19 -19 -20 -33 -20 -390 l0 -371 25 -24 24 -25 366 0
366 0 24 25 25 24 0 371 c0 357 -1 371 -20 390 -19 19 -33 20 -395 20 -362 0
-376 -1 -395 -20z m660 -390 l0 -270 -270 0 -270 0 0 263 c0 145 3 267 7 270
3 4 125 7 270 7 l263 0 0 -270z"/>
</g>
</svg>
