<?xml version="1.0" standalone="no"?>
<!DOCTYPE svg PUBLIC "-//W3C//DTD SVG 20010904//EN"
 "http://www.w3.org/TR/2001/REC-SVG-20010904/DTD/svg10.dtd">
<svg version="1.0" xmlns="http://www.w3.org/2000/svg"
 width="512.000000pt" height="512.000000pt" viewBox="0 0 512.000000 512.000000"
 preserveAspectRatio="xMidYMid meet">

<g transform="translate(0.000000,512.000000) scale(0.100000,-0.100000)"
fill="#000000" stroke="none">
<path d="M245 5111 c-90 -22 -172 -90 -215 -176 l-25 -50 0 -615 0 -615 24
-53 c29 -64 112 -143 178 -168 45 -18 99 -19 942 -22 768 -2 902 0 952 12 105
27 169 82 218 186 l26 55 0 595 c0 551 -1 599 -18 648 -25 70 -101 152 -169
183 l-53 24 -915 2 c-503 0 -928 -2 -945 -6z m1819 -215 c69 -29 66 2 66 -634
l0 -574 -29 -29 -29 -29 -894 0 c-810 0 -896 2 -917 16 -50 36 -51 43 -51 625
0 471 2 545 16 574 32 68 -14 65 942 65 715 0 868 -2 896 -14z"/>
<path d="M3005 5106 c-22 -7 -54 -20 -71 -29 -35 -18 -106 -92 -127 -133 -37
-71 -38 -121 -35 -1354 l3 -1205 26 -55 c37 -80 81 -125 157 -162 l67 -33 915
0 c862 0 918 1 968 18 70 25 152 101 183 169 l24 53 0 1255 0 1255 -34 63
c-38 70 -69 100 -145 140 l-51 27 -920 2 c-724 2 -929 -1 -960 -11z m1840
-212 c69 -32 65 46 65 -1263 0 -1273 2 -1228 -51 -1265 -21 -14 -107 -16 -917
-16 l-894 0 -29 29 -29 29 0 1214 c0 1105 1 1216 16 1237 36 51 16 50 942 51
767 0 868 -2 897 -16z"/>
<path d="M244 2976 c-96 -23 -185 -101 -220 -192 -18 -47 -19 -94 -19 -1299
l0 -1250 34 -63 c38 -70 69 -100 145 -140 l51 -27 935 0 935 0 53 24 c68 31
144 113 169 183 17 50 18 116 18 1288 l0 1235 -26 55 c-49 103 -113 158 -216
185 -49 13 -188 15 -933 14 -658 0 -888 -4 -926 -13z m1857 -235 l29 -29 0
-1214 c0 -1106 -1 -1216 -16 -1237 -37 -52 -18 -51 -945 -51 -763 0 -865 2
-894 16 -69 32 -65 -46 -65 1263 0 1273 -2 1228 51 1265 21 14 107 16 917 16
l894 0 29 -29z"/>
<path d="M3019 1696 c-102 -27 -171 -87 -218 -186 l-26 -55 -3 -565 c-3 -601
0 -650 43 -726 33 -57 103 -118 161 -140 47 -18 88 -19 979 -19 l930 0 51 27
c76 40 107 70 145 140 l34 63 0 615 0 615 -24 53 c-29 64 -112 143 -178 168
-45 18 -98 19 -948 21 -692 1 -911 -1 -946 -11z m1840 -222 c50 -36 51 -43 51
-625 0 -472 -2 -545 -16 -574 -32 -68 12 -65 -943 -65 -927 0 -908 -1 -945 51
-14 21 -16 83 -16 597 l0 574 29 29 29 29 894 0 c810 0 896 -2 917 -16z"/>
</g>
</svg>
