<?xml version="1.0" encoding="UTF-8"?>
<svg version="1.1" xmlns="http://www.w3.org/2000/svg" width="512" height="512">
<path d="M0 0 C1.01790619 0.00215515 2.03581238 0.0043103 3.08456421 0.00653076 C17.69363523 0.05620146 32.02575853 0.30709809 46.375 3.3125 C47.34985352 3.51117676 48.32470703 3.70985352 49.32910156 3.91455078 C72.28246524 8.71598301 94.31451867 15.99442749 115.375 26.3125 C116.47400635 26.84762207 116.47400635 26.84762207 117.59521484 27.39355469 C137.57559507 37.23739313 155.80663876 50.20211828 172.1640625 65.2890625 C174.10831937 67.0684354 176.09892702 68.75338026 178.125 70.4375 C221.71548823 108.67784783 248.10392959 167.66534506 255.375 224.3125 C255.46232895 224.97929779 255.5496579 225.64609558 255.63963318 226.33309937 C256.33764085 232.06135288 256.55060719 237.71304289 256.578125 243.48046875 C256.58382507 244.43657547 256.58952515 245.39268219 256.59539795 246.37776184 C256.6047971 248.39725661 256.61136156 250.41676637 256.61523438 252.4362793 C256.62483025 255.44674501 256.65585684 258.45649402 256.6875 261.46679688 C256.76136788 274.98302518 255.61280336 287.98656149 253.375 301.3125 C253.18679688 302.44888916 252.99859375 303.58527832 252.8046875 304.75610352 C245.78767769 343.86702487 228.79461257 381.05464135 204.375 412.3125 C203.61574219 413.28445313 202.85648437 414.25640625 202.07421875 415.2578125 C189.73986402 430.63741644 175.93895499 445.19015196 160.375 457.3125 C159.43914062 458.07691406 158.50328125 458.84132813 157.5390625 459.62890625 C125.58628299 485.2157721 86.41988322 501.72551276 46.375 509.3125 C45.56562988 509.47621094 44.75625977 509.63992188 43.92236328 509.80859375 C13.88110013 515.67977137 -20.7615176 514.58512909 -50.625 508.3125 C-52.14794678 507.99901611 -52.14794678 507.99901611 -53.70166016 507.67919922 C-111.21523179 495.4588239 -167.53249117 461.99259887 -202.39501953 413.99121094 C-203.68219052 412.23444482 -205.00688414 410.5112935 -206.33984375 408.7890625 C-217.31201455 394.45861408 -225.95551074 378.61726606 -233.625 362.3125 C-234.38876953 360.69794922 -234.38876953 360.69794922 -235.16796875 359.05078125 C-243.30826529 340.95880851 -248.93744723 321.77577514 -252.625 302.3125 C-252.78871094 301.50312988 -252.95242187 300.69375977 -253.12109375 299.85986328 C-258.59069558 271.87335724 -258.46977511 238.21828161 -252.625 210.3125 C-252.42632324 209.33764648 -252.22764648 208.36279297 -252.02294922 207.35839844 C-241.7272891 158.1397446 -219.29081567 114.71000304 -184.625 78.3125 C-184.05475098 77.71356934 -183.48450195 77.11463867 -182.89697266 76.49755859 C-174.89671874 68.15723469 -166.68033043 60.51197864 -157.39306641 53.62744141 C-155.58557641 52.28318 -153.79826388 50.91490873 -152.01171875 49.54296875 C-143.60452986 43.15390681 -134.86138957 37.61168285 -125.65234375 32.45166016 C-123.78933792 31.40484113 -121.94116361 30.33571119 -120.09375 29.26171875 C-83.4933446 8.69459905 -41.63834482 -0.15855121 0 0 Z M-147.625 69.3125 C-148.50115967 70.01511963 -148.50115967 70.01511963 -149.39501953 70.73193359 C-156.97263219 76.87127226 -164.01295934 83.51135992 -170.9375 90.375 C-171.68572021 91.11387451 -172.43394043 91.85274902 -173.20483398 92.61401367 C-173.89649658 93.30986572 -174.58815918 94.00571777 -175.30078125 94.72265625 C-175.91864502 95.34277588 -176.53650879 95.96289551 -177.1730957 96.60180664 C-178.84778563 98.35955947 -178.84778563 98.35955947 -179.625 101.3125 C-178.52212646 101.83251587 -178.52212646 101.83251587 -177.39697266 102.36303711 C-174.61317852 103.68583135 -171.837447 105.02403343 -169.06591797 106.37231445 C-167.29823997 107.22668423 -165.5222524 108.06379416 -163.74609375 108.90039062 C-149.20489812 116.00668115 -139.69662123 125.40959315 -134.38671875 140.734375 C-130.79110623 152.90414045 -130.90438825 167.88820139 -136.625 179.3125 C-143.03095192 190.64738383 -151.92747156 197.53517521 -163.625 202.875 C-174.05778495 207.68070964 -181.93143316 212.77374432 -188.83203125 222.04296875 C-195.77116326 230.82648879 -204.6927955 235.96590657 -215.625 238.3125 C-217.3566239 238.4562323 -219.09198333 238.55824932 -220.828125 238.62890625 C-221.71145508 238.66701416 -222.59478516 238.70512207 -223.50488281 238.74438477 C-224.61702148 238.78748779 -225.72916016 238.83059082 -226.875 238.875 C-232.19625 239.0915625 -232.19625 239.0915625 -237.625 239.3125 C-237.625 247.8925 -237.625 256.4725 -237.625 265.3125 C-235.315 264.9825 -233.005 264.6525 -230.625 264.3125 C-214.51648852 263.04898482 -201.93079479 265.7416875 -189.3046875 276.2421875 C-185.51556335 279.56833185 -181.88807076 283.01790658 -178.3828125 286.640625 C-177.82174805 287.21675537 -177.26068359 287.79288574 -176.68261719 288.38647461 C-175.59236808 289.51294934 -174.51159055 290.64870047 -173.44238281 291.79516602 C-167.65235093 297.79303111 -161.16437669 300.30812449 -153.25 302.6875 C-139.8037176 306.99752716 -130.84770218 313.7373724 -124.25 326.375 C-117.44713247 340.22776657 -118.06223706 356.07799043 -122.359375 370.6328125 C-124.61532716 377.19178451 -127.79194889 383.12130449 -131.23828125 389.12109375 C-139.97006704 405.08964493 -142.87339167 430.37317473 -141.625 448.3125 C-139.54742704 450.2336965 -137.82639356 451.50658914 -135.4375 452.9375 C-134.77041016 453.35644531 -134.10332031 453.77539062 -133.41601562 454.20703125 C-131.16762578 455.60230138 -128.89835686 456.95833944 -126.625 458.3125 C-125.83270996 458.79557617 -125.04041992 459.27865234 -124.22412109 459.77636719 C-97.32795197 476.12847001 -67.82926195 487.57268362 -36.625 492.3125 C-35.49328369 492.48765137 -34.36156738 492.66280273 -33.19555664 492.84326172 C-22.22357938 494.38833885 -11.38355348 494.71229127 -0.3125 494.6875 C0.60608795 494.68695618 1.5246759 494.68641235 2.47109985 494.68585205 C53.23323941 494.54828677 104.48362056 478.24970711 144.375 446.3125 C145.20773437 445.67054688 146.04046875 445.02859375 146.8984375 444.3671875 C153.72729889 439.04627658 160.10403473 433.27030363 166.375 427.3125 C166.91060547 426.80557617 167.44621094 426.29865234 167.99804688 425.77636719 C175.74463187 418.39362299 182.64090542 410.66117197 189.04101562 402.08642578 C190.35426081 400.34007887 191.69688617 398.62037698 193.046875 396.90234375 C215.99582451 367.25457966 230.73844535 330.26845997 236.375 293.3125 C236.64207764 291.63559082 236.64207764 291.63559082 236.91455078 289.92480469 C238.55246817 278.532981 238.60713364 267.30409923 238.5 255.8125 C238.48993815 253.91016102 238.48081803 252.00781683 238.47265625 250.10546875 C238.45092419 245.50768019 238.41657586 240.91015017 238.375 236.3125 C237.15176025 236.39628906 235.92852051 236.48007813 234.66821289 236.56640625 C233.0405506 236.66963816 231.41286368 236.7724822 229.78515625 236.875 C228.9816272 236.93107422 228.17809814 236.98714844 227.35021973 237.04492188 C217.51151225 237.64621798 208.96039768 236.11718321 201.33203125 229.4921875 C194.90610348 222.33516615 192.28272798 212.671669 189.55395508 203.6315918 C187.68219793 197.58780573 185.68856812 192.70937132 180.0625 189.3125 C175.56536372 188.09293762 173.62339431 188.45865521 169.375 190.3125 C165.71138507 192.90756057 162.97009294 195.72278205 160.0625 199.125 C150.29621464 210.46924413 137.73039645 219.98217468 122.47265625 221.625 C112.60618604 222.03134112 103.85729777 219.34776355 96.1953125 213.03515625 C90.22022759 207.3806231 86.43314797 200.73202106 82.5625 193.5625 C78.17186342 185.44761069 73.34587785 178.35904744 67.375 171.3125 C66.72362061 170.54365479 66.72362061 170.54365479 66.05908203 169.75927734 C45.84885996 146.16714745 18.55778501 131.18599896 -12.625 128.3125 C-23.7221951 127.55857852 -34.02322311 129.3147016 -44.5 133 C-55.50082504 136.43095039 -68.00819679 135.11514003 -78.20703125 130.0234375 C-89.04795533 123.94471845 -96.1958015 115.58919836 -100.00097656 103.75195312 C-101.00536531 99.82556331 -101.15738833 96.03816011 -101.125 92 C-101.12000488 91.17330811 -101.11500977 90.34661621 -101.10986328 89.49487305 C-100.78395679 77.97464058 -95.91430328 68.8291275 -88.00390625 60.6328125 C-80.47144141 53.63962344 -71.86872194 51.72793078 -61.9375 50.375 C-52.62961619 48.95232353 -44.25476196 47.20734832 -35.625 43.3125 C-34.53316406 42.82136719 -33.44132813 42.33023438 -32.31640625 41.82421875 C-21.09207232 36.28476537 -12.40449972 28.03687465 -4.625 18.3125 C-55.23752522 15.52222296 -108.75305027 38.02683347 -147.625 69.3125 Z M12.6875 23.0625 C11.57058143 25.13902467 10.46654565 27.22252634 9.375 29.3125 C6.53888002 32.80002562 3.45255202 36.037669 0.375 39.3125 C-0.16382813 39.92738281 -0.70265625 40.54226562 -1.2578125 41.17578125 C-15.77643304 57.04412279 -38.72928976 64.75778147 -59.47094727 67.09838867 C-67.02047107 68.04517629 -73.51109144 70.22273008 -78.5 76.25 C-79.33144531 77.22259766 -79.33144531 77.22259766 -80.1796875 78.21484375 C-84.46613827 84.43598987 -84.45075945 90.99366361 -83.625 98.3125 C-80.95865438 106.57197063 -74.60613882 111.98390937 -67.3125 116.25 C-58.1429925 118.89206148 -50.59065416 116.93011179 -41.74902344 114.1730957 C-36.6598501 112.58826939 -31.97818155 111.44745416 -26.625 111.3125 C-25.57957031 111.26222656 -24.53414062 111.21195312 -23.45703125 111.16015625 C11.76681601 110.21632326 44.92005869 124.38810177 70.375 148.3125 C75.22894712 152.9180866 79.56172894 157.74733974 83.625 163.0625 C84.45753296 164.14809204 84.45753296 164.14809204 85.30688477 165.25561523 C89.94282838 171.44722688 93.87885437 177.93891743 97.59667969 184.71582031 C102.25263729 193.16823038 106.79263696 201.11837899 116.375 204.3125 C123.67150575 205.39921362 129.27538008 202.08957234 135.375 198.3125 C140.68686811 194.28088752 145.17697256 189.57945964 149.58032227 184.6015625 C153.99983875 179.6158311 157.84729543 175.33608842 164.375 173.3125 C165.08140625 173.08175781 165.7878125 172.85101563 166.515625 172.61328125 C175.75824653 170.07640786 184.09158036 171.71791933 192.375 176.3125 C202.72257139 182.89731816 205.85229469 196.60923916 209.46875 207.65234375 C210.759985 211.53125535 211.92499391 214.70780431 214.375 218 C220.76200861 220.79431627 228.69047445 219.79795012 235.375 218.3125 C234.8674645 211.17425877 233.65285705 204.47268971 231.8125 197.5625 C231.54928955 196.57024414 231.2860791 195.57798828 231.01489258 194.55566406 C222.88999677 164.80438037 209.71029147 136.4633735 190.375 112.3125 C189.41207031 111.06339844 189.41207031 111.06339844 188.4296875 109.7890625 C176.56983989 94.56812448 162.74008305 80.00542483 147.375 68.3125 C146.75061035 67.83345215 146.1262207 67.3544043 145.48291016 66.86083984 C114.55305283 43.28719354 78.62190572 27.30317503 40.20751953 20.80126953 C38.30809843 20.47351216 36.41296083 20.1199604 34.52294922 19.74169922 C22.27267938 16.74428857 22.27267938 16.74428857 12.6875 23.0625 Z M-191.625 115.3125 C-214.48041905 139.63233949 -235.625 187.69594779 -235.625 221.3125 C-221.65724565 221.7410561 -213.59428911 221.71806635 -202.99609375 211.78125 C-200.81912664 209.51462197 -198.97145317 207.22474389 -197.125 204.6875 C-190.34402865 195.55700004 -179.63957735 191.12142988 -169.57226562 186.49609375 C-160.38674031 182.10496457 -154.47479338 176.83349437 -150.625 167.3125 C-147.83809589 158.95178766 -149.25468739 149.30787364 -152.625 141.3125 C-158.27815785 130.63431296 -168.36681569 126.17276483 -178.76611328 121.22167969 C-181.93656176 119.67101642 -184.98104183 117.91049861 -188.0234375 116.125 C-189.62295515 115.16169124 -189.62295515 115.16169124 -191.625 115.3125 Z M-236.625 284.3125 C-233.16615316 313.49857902 -224.50222316 341.41252685 -210.625 367.3125 C-210.05676514 368.3967627 -210.05676514 368.3967627 -209.47705078 369.50292969 C-203.70846623 380.49183513 -197.25006496 390.52630443 -189.625 400.3125 C-188.93664062 401.21355469 -188.24828125 402.11460937 -187.5390625 403.04296875 C-179.08250465 413.89842771 -169.42588052 423.68223442 -159.625 433.3125 C-156.80274206 430.49024206 -157.09633749 428.26724268 -156.6953125 424.3203125 C-156.53797445 422.87758081 -156.38041473 421.43487328 -156.22265625 419.9921875 C-155.98582902 417.73090085 -155.75319471 415.46929398 -155.52587891 413.20703125 C-154.22209175 400.42369514 -151.86425945 389.24359039 -145.0625 378.125 C-138.18028445 366.39483804 -134.32371732 354.00098763 -137.2734375 340.30078125 C-140.2132277 331.29296257 -145.39222732 324.80522616 -153.84375 320.44921875 C-157.95164424 318.77029007 -162.2093325 317.52498206 -166.51342773 316.45043945 C-178.30441174 313.20950465 -186.37306131 303.85010745 -194.48046875 295.25195312 C-201.23533579 288.26820216 -208.51921499 281.8012577 -218.578125 281.109375 C-219.66609375 281.09390625 -220.7540625 281.0784375 -221.875 281.0625 C-222.95265625 281.03671875 -224.0303125 281.0109375 -225.140625 280.984375 C-229.43444503 281.38872577 -232.64874716 282.6629628 -236.625 284.3125 Z " fill="#000000" transform="translate(255.625,-0.3125)"/>
<path d="M0 0 C1.72573242 -0.0299707 1.72573242 -0.0299707 3.48632812 -0.06054688 C18.32318602 -0.05214072 28.70130841 6.58829595 40.9375 14.125 C43.09169721 15.44815472 45.24753346 16.76819529 47.40908813 18.07929993 C48.74355516 18.88896128 50.07388156 19.70550055 51.39926147 20.529953 C56.63576435 23.71115488 60.29390632 24.97254676 66.29296875 23.66015625 C67.17919922 23.47646484 68.06542969 23.29277344 68.97851562 23.10351562 C70.80671277 22.70540927 72.63483938 22.30697888 74.46289062 21.90820312 C86.01162122 19.51507267 94.96850249 19.90177909 105.53125 25.4765625 C113.74071599 31.26050445 117.29133947 43.35796132 121.01463318 52.26828003 C122.21749408 55.14408873 123.43494889 58.01367533 124.65060425 60.88409424 C125.54856388 63.02920833 126.41831938 65.18434643 127.28735352 67.34130859 C130.40076438 74.8667188 133.14259284 80.43888592 140.5625 84.4375 C141.90872743 85.26632312 143.253783 86.09705268 144.59765625 86.9296875 C145.25870361 87.32043457 145.91975098 87.71118164 146.60083008 88.11376953 C154.98871345 93.08114468 163.03686529 98.25744188 166.125 108.04296875 C167.75967723 116.98990752 167.61127689 125.70898769 162.5625 133.4375 C159.75774191 137.30766974 156.83267775 141.06200642 153.85400391 144.79882812 C151.84653634 147.34592119 149.91905803 149.94843177 148 152.5625 C147.35933594 153.43132812 146.71867188 154.30015625 146.05859375 155.1953125 C143.24685902 159.40924392 143.44302737 163.30954209 143.45703125 168.18359375 C143.44355746 169.75977916 143.42853112 171.33595192 143.41210938 172.91210938 C143.38944953 175.3805704 143.37486031 177.84761319 143.38745117 180.31616211 C143.42946087 191.55318926 142.84277675 201.14128044 135.12573242 210.10668945 C133.73088118 211.43320153 132.23909539 212.65522986 130.75 213.875 C122.18222439 221.56471165 117.08265605 231.83789863 111.52740479 241.75517273 C111.19093933 242.35545792 110.85447388 242.9557431 110.5078125 243.57421875 C110.17658386 244.16544022 109.84535522 244.75666168 109.50408936 245.36579895 C103.54666943 255.88029092 98.01005018 264.39383858 86.33984375 268.7109375 C78.47845189 270.76750415 69.78673337 270.29827689 62.5625 266.4375 C55.45952939 261.71402455 51.71473658 256.08029234 48.3918457 248.34858704 C47.84233333 247.08232863 47.28204091 245.82068996 46.71069336 244.56413269 C41.67858792 233.45889465 38.25230628 222.13853834 35.4140625 210.3125 C35.24101908 209.59355812 35.06797565 208.87461624 34.88968849 208.13388824 C33.27389251 201.39702151 31.69743488 194.65111088 30.140625 187.90039062 C24.7254049 157.79914716 24.7254049 157.79914716 7.5625 134.4375 C3.06302189 133.46863428 -1.51874225 134.37143607 -5.9375 135.4375 C-14.82071434 137.55840585 -22.27852117 136.70821548 -30.4375 132.4375 C-34.64582511 129.51392799 -38.58039526 126.33691859 -42.50488281 123.04638672 C-44.55419118 121.34035563 -46.62863041 119.66947065 -48.7109375 118.00390625 C-50.1408769 116.85708485 -51.5705693 115.7099554 -53 114.5625 C-53.66668701 114.02761963 -54.33337402 113.49273926 -55.02026367 112.94165039 C-62.71477266 106.69823447 -69.46115369 100.54998462 -71.4375 90.4375 C-71.73379156 87.14077424 -71.76247527 83.87094197 -71.75 80.5625 C-71.76611328 79.71558594 -71.78222656 78.86867188 -71.79882812 77.99609375 C-71.80662212 67.81714233 -68.60387263 60.92024615 -62.5 52.9375 C-61.32582895 51.3588117 -60.15267541 49.77936619 -58.98046875 48.19921875 C-58.3879834 47.40692871 -57.79549805 46.61463867 -57.18505859 45.79833984 C-54.49364158 42.16240767 -51.90508692 38.45668244 -49.3125 34.75 C-47.83910435 32.66252826 -46.36329306 30.57678083 -44.88720703 28.49121094 C-43.91871205 27.11920356 -42.95355104 25.74483681 -41.99169922 24.36816406 C-30.1817348 7.49218765 -21.42674548 -0.13159922 0 0 Z M-20.93310547 26.50146484 C-23.40000703 29.67616938 -25.71435363 32.94325703 -28 36.25 C-29.04336437 37.74412299 -30.08766927 39.23758954 -31.1328125 40.73046875 C-31.93960449 41.88361572 -31.93960449 41.88361572 -32.76269531 43.06005859 C-36.12541238 47.83354822 -39.5591477 52.5558912 -42.98461914 57.28442383 C-43.99188551 58.67489456 -44.99819538 60.06605884 -46.00341797 61.45800781 C-46.9604846 62.77906608 -47.92307809 64.09613766 -48.89111328 65.40917969 C-52.65331439 70.55575218 -53.6208884 73.85423631 -53.75 80.1875 C-53.78738281 81.37859375 -53.82476562 82.5696875 -53.86328125 83.796875 C-53.18864195 89.56535044 -50.83646699 93.47304221 -46.4765625 97.140625 C-45.34790206 98.00198861 -44.20938016 98.85054865 -43.0625 99.6875 C-41.81733159 100.62840789 -40.57255178 101.56983022 -39.328125 102.51171875 C-38.68939453 102.98915527 -38.05066406 103.4665918 -37.39257812 103.95849609 C-35.42009998 105.450663 -33.48011434 106.97693891 -31.546875 108.51953125 C-30.92087402 109.0187207 -30.29487305 109.51791016 -29.64990234 110.03222656 C-28.45118303 110.98980037 -27.25353967 111.94872309 -26.05712891 112.90917969 C-21.18118261 117.02664204 -21.18118261 117.02664204 -15.21875 118.44921875 C-14.08953125 118.28873047 -14.08953125 118.28873047 -12.9375 118.125 C-12.1846875 118.02574219 -11.431875 117.92648437 -10.65625 117.82421875 C-8.48986892 117.48759901 -8.48986892 117.48759901 -6.6328125 116.91796875 C1.97233916 115.03463485 11.44672204 115.43686871 19.25390625 119.5625 C38.79056997 135.4298411 43.14457318 164.20893868 48.625 187.375 C54.42652032 212.2693921 54.42652032 212.2693921 62.80859375 236.37890625 C63.20901382 237.35536606 63.6094339 238.33182587 64.02198792 239.33787537 C66.51645373 245.03304982 68.84498017 248.57874009 74.5625 251.4375 C79.9098028 252.04514805 82.3668182 250.68827195 86.5625 247.4375 C88.77214433 244.5911109 88.77214433 244.5911109 90.62109375 241.30859375 C91.1494558 240.42398216 91.1494558 240.42398216 91.68849182 239.52149963 C92.80497057 237.64648594 93.90291982 235.76141618 95 233.875 C95.73115699 232.63662211 96.46357016 231.39898499 97.19726562 230.16210938 C97.55710037 229.55520767 97.91693512 228.94830597 98.28767395 228.32301331 C98.82396675 227.41868813 98.82396675 227.41868813 99.37109375 226.49609375 C99.72697067 225.89494247 100.0828476 225.2937912 100.44950867 224.67442322 C110.33896519 207.98510468 110.33896519 207.98510468 116.875 202 C122.80625066 196.56730773 122.80625066 196.56730773 124.83374023 189.02099609 C124.85500918 187.66775309 124.86690642 186.31434116 124.87109375 184.9609375 C124.89627692 183.47004856 124.92167456 181.97916324 124.94726562 180.48828125 C124.97583393 178.15837753 124.99986971 175.82853722 125.01879883 173.49853516 C125.22787812 151.93349918 125.22787812 151.93349918 132.0625 143.1875 C132.75472656 142.28644531 133.44695312 141.38539063 134.16015625 140.45703125 C134.95292969 139.46058594 135.74570312 138.46414063 136.5625 137.4375 C137.54115663 136.19202821 138.5189808 134.94590197 139.49609375 133.69921875 C140.98112913 131.80541392 142.46875067 129.9142071 143.96875 128.03222656 C147.47595025 123.62324618 148.66266074 121.36166695 149.0859375 115.703125 C148.10090734 111.43956162 145.20249755 108.57245236 141.70263672 106.15039062 C139.59777566 104.90134107 137.46943765 103.71922939 135.3125 102.5625 C123.18504971 96.04920391 116.6708211 89.36225244 111.4375 76.5 C110.92960938 75.30810059 110.42171875 74.11620117 109.8984375 72.88818359 C107.67141179 67.63663541 105.52368885 62.35353725 103.3828125 57.06640625 C103.06844238 56.29224365 102.75407227 55.51808105 102.43017578 54.72045898 C101.87313817 53.33507479 101.32631047 51.94551663 100.79248047 50.55102539 C98.9358873 45.83130475 96.76788884 41.86451631 92.4375 39.0625 C84.48338457 37.33334447 75.96977039 40.09629671 68.17578125 41.81640625 C54.33645246 44.19527466 44.32353734 37.92515471 32.9375 31 C28.15907392 28.12315547 23.36558651 25.27295027 18.5625 22.4375 C17.80831787 21.97190674 17.05413574 21.50631348 16.27709961 21.02661133 C10.78866619 17.8808617 5.60208302 17.87035623 -0.625 18 C-1.59630859 17.99291016 -2.56761719 17.98582031 -3.56835938 17.97851562 C-11.8931338 18.05269113 -15.69814897 20.12433602 -20.93310547 26.50146484 Z " fill="#000000" transform="translate(207.4375,169.5625)"/>
<path d="M0 0 C5.50190096 4.21593927 6.29204887 8.64695749 7.4921875 15.12109375 C7.68724884 16.09861099 7.88231018 17.07612823 8.08328247 18.08326721 C8.49046724 20.14494986 8.88830035 22.20849883 9.27734375 24.27368164 C9.87312679 27.42758376 10.50046265 30.57395127 11.1328125 33.72070312 C11.52531857 35.7287999 11.91600507 37.73725337 12.3046875 39.74609375 C12.49102753 40.68376083 12.67736755 41.62142792 12.86935425 42.58750916 C14.40912049 50.88417252 13.47873432 55.87197685 9.02734375 63.12890625 C8.62600723 63.79985825 8.22467072 64.47081024 7.81117249 65.16209412 C6.52877787 67.30102026 5.23337274 69.43171877 3.9375 71.5625 C3.09354486 72.96628249 2.25043838 74.37057557 1.40820312 75.77539062 C-0.64950633 79.20200531 -2.72443679 82.61780002 -4.80499268 86.03057861 C-5.97965898 87.96647715 -7.14135431 89.90963476 -8.30029297 91.85498047 C-9.01125586 93.03751749 -9.72234902 94.21997622 -10.43359375 95.40234375 C-11.05161865 96.43738037 -11.66964355 97.47241699 -12.30639648 98.53881836 C-14.69498286 102.00996428 -16.43382024 102.89073724 -20.5625 103.6875 C-26.95983035 103.51207047 -30.79826791 98.28374788 -35 94 C-35.92039062 93.11441406 -36.84078125 92.22882813 -37.7890625 91.31640625 C-46.87916601 82.50136351 -46.87916601 82.50136351 -47.14770508 76.94238281 C-46.97809905 72.4154438 -46.25014046 68.2080406 -45.35546875 63.77734375 C-45.18501541 62.91363663 -45.01456207 62.0499295 -44.83894348 61.16004944 C-44.47827675 59.3432502 -44.11417721 57.52712941 -43.74682617 55.71166992 C-43.18894726 52.94467818 -42.64757002 50.17479755 -42.10742188 47.40429688 C-41.75359788 45.63261376 -41.39881238 43.86112233 -41.04296875 42.08984375 C-40.88346237 41.26781967 -40.72395599 40.44579559 -40.55961609 39.59886169 C-38.91082717 31.58082551 -35.89395285 26.43480886 -30.08984375 20.76171875 C-29.23768028 19.91236504 -29.23768028 19.91236504 -28.36830139 19.04585266 C-27.17409055 17.85832961 -25.97630447 16.67439216 -24.77514648 15.49389648 C-22.93268737 13.68276921 -21.10127891 11.86102269 -19.27148438 10.03710938 C-18.10739455 8.88218349 -16.94270199 7.72786474 -15.77734375 6.57421875 C-15.22835922 6.0294841 -14.67937469 5.48474945 -14.11375427 4.92350769 C-9.81245914 0.70312982 -6.19774542 -1.49639259 0 0 Z M-16.69482422 32.11669922 C-24.70662239 40.73493693 -25.33294022 54.83455641 -27 66 C-27.14187744 66.91740967 -27.28375488 67.83481934 -27.42993164 68.7800293 C-28.20616659 73.45243689 -28.20616659 73.45243689 -26.1875 77.5625 C-24.15768966 79.1830593 -24.15768966 79.1830593 -22 79 C-19.23695504 75.27033423 -16.87211154 71.29686221 -14.47607422 67.32397461 C-13.66703956 65.99668736 -12.84269951 64.67859378 -12.00244141 63.37084961 C-5.89181437 53.9161347 -5.89181437 53.9161347 -5.4140625 42.90625 C-5.90246967 40.92713368 -6.42958032 38.95705503 -7 37 C-7.39031366 35.06552682 -7.76785583 33.12837076 -8.125 31.1875 C-8.41361796 29.7910331 -8.70401175 28.39492333 -9 27 C-11.92684401 27 -14.64834419 30.26114444 -16.69482422 32.11669922 Z " fill="#000000" transform="translate(405,324)"/>
</svg>
