<?xml version="1.0" standalone="no"?>
<!DOCTYPE svg PUBLIC "-//W3C//DTD SVG 20010904//EN"
 "http://www.w3.org/TR/2001/REC-SVG-20010904/DTD/svg10.dtd">
<svg version="1.0" xmlns="http://www.w3.org/2000/svg"
 width="512.000000pt" height="512.000000pt" viewBox="0 0 512.000000 512.000000"
 preserveAspectRatio="xMidYMid meet">

<g transform="translate(0.000000,512.000000) scale(0.100000,-0.100000)"
fill="#000000" stroke="none">
<path d="M2410 5114 c-285 -34 -522 -113 -735 -247 -538 -335 -843 -936 -795
-1568 26 -337 117 -570 373 -954 259 -387 1228 -1803 1247 -1820 14 -12 36
-20 60 -20 24 0 46 8 60 20 18 16 992 1438 1257 1835 245 366 338 611 363 950
47 642 -277 1255 -837 1583 -161 94 -366 169 -558 202 -87 16 -364 28 -435 19z
m441 -224 c327 -69 619 -239 827 -480 268 -311 393 -691 362 -1098 -21 -272
-103 -494 -287 -777 -138 -212 -1186 -1745 -1193 -1745 -7 0 -1082 1573 -1203
1760 -173 268 -255 492 -277 758 -27 335 55 660 238 939 239 364 620 601 1062
663 104 14 361 4 471 -20z"/>
<path d="M2392 4070 c-112 -30 -206 -84 -293 -170 -206 -204 -255 -494 -127
-760 33 -68 57 -100 127 -170 134 -134 275 -192 461 -192 186 0 327 58 461
192 103 102 157 202 185 340 67 336 -147 675 -482 760 -100 26 -233 26 -332 0z
m361 -222 c289 -138 355 -511 130 -737 -179 -178 -467 -179 -644 -1 -250 249
-146 653 196 766 25 9 77 13 140 11 92 -2 106 -5 178 -39z"/>
<path d="M1285 1180 c-658 -119 -1000 -304 -998 -539 2 -131 91 -235 289 -334
728 -365 2759 -412 3744 -88 349 116 511 248 513 421 1 151 -131 276 -406 384
-186 72 -537 158 -712 172 -62 6 -73 4 -97 -15 -32 -25 -46 -81 -30 -116 18
-39 52 -54 173 -75 465 -83 789 -201 859 -316 21 -33 21 -34 3 -65 -39 -66
-211 -155 -419 -217 -854 -254 -2434 -254 -3288 0 -208 62 -380 151 -419 217
-18 31 -18 32 2 65 70 113 383 229 840 312 140 25 175 39 193 79 16 34 2 91
-29 115 -32 25 -81 25 -218 0z"/>
</g>
</svg>
