<?xml version="1.0" encoding="UTF-8"?>
<svg version="1.1" xmlns="http://www.w3.org/2000/svg" width="512" height="512">
<path d="M0 0 C1.10340729 -0.00807175 2.20681458 -0.01614349 3.34365845 -0.02445984 C5.68188941 -0.03825262 8.0201401 -0.04899612 10.35839844 -0.05688477 C12.69667673 -0.06828395 15.03493159 -0.08853815 17.37304688 -0.1184082 C78.17758028 -0.89274027 138.14143971 21.70920575 183.5390625 62.23828125 C184.38210938 62.97175781 185.22515625 63.70523438 186.09375 64.4609375 C196.82617236 73.90752651 206.75396124 83.9476818 215.5390625 95.23828125 C216.31507813 96.19734375 217.09109375 97.15640625 217.890625 98.14453125 C244.38070344 131.44634415 261.77733221 172.29151517 268.5390625 214.23828125 C268.71566406 215.23561279 268.89226562 216.23294434 269.07421875 217.26049805 C270.87904171 228.67358609 270.911296 240.05356809 270.90966797 251.58569336 C270.91400598 255.00621706 270.95033548 258.42540933 270.98828125 261.84570312 C271.24235574 311.91548033 254.68957498 362.50640654 225.5390625 403.23828125 C225.07242187 403.89425293 224.60578125 404.55022461 224.125 405.22607422 C217.21684934 414.87024043 209.81574562 423.74875013 201.5390625 432.23828125 C200.8279834 432.9751416 200.1169043 433.71200195 199.38427734 434.47119141 C189.66179526 444.51918031 179.93100244 454.10254277 168.5390625 462.23828125 C167.91999023 462.68574707 167.30091797 463.13321289 166.66308594 463.59423828 C134.83391113 486.47895136 99.1474675 502.14514332 60.5390625 509.23828125 C59.73307617 509.3990918 58.92708984 509.55990234 58.09667969 509.72558594 C30.14295672 515.15077827 -2.56078079 514.71925234 -30.4609375 509.23828125 C-31.35651367 509.07730957 -32.25208984 508.91633789 -33.17480469 508.75048828 C-76.78156801 500.86125633 -117.91949967 481.17178992 -151.4609375 452.23828125 C-152.20601563 451.6040625 -152.95109375 450.96984375 -153.71875 450.31640625 C-167.22373583 438.5052661 -179.89512493 425.75467897 -190.4609375 411.23828125 C-191.31742816 410.08833294 -192.17420183 408.93859536 -193.03125 407.7890625 C-199.0718789 399.59738599 -204.43098821 391.08183047 -209.4609375 382.23828125 C-209.82541992 381.60647949 -210.18990234 380.97467773 -210.56542969 380.32373047 C-225.49566768 354.23864124 -234.97478804 324.90243011 -239.4609375 295.23828125 C-239.72583984 293.55460449 -239.72583984 293.55460449 -239.99609375 291.83691406 C-241.6529961 280.22380382 -241.85967263 268.7064818 -241.8359375 256.98828125 C-241.83539368 255.97626648 -241.83484985 254.96425171 -241.83428955 253.92156982 C-241.7935426 237.3871073 -240.86980657 221.46763261 -237.4609375 205.23828125 C-237.25194824 204.2229834 -237.04295898 203.20768555 -236.82763672 202.16162109 C-228.0489835 160.84605691 -209.04451326 122.22294702 -181.4609375 90.23828125 C-180.83832031 89.50480469 -180.21570313 88.77132812 -179.57421875 88.015625 C-167.50040478 74.18648247 -154.42388146 60.92431011 -139.4609375 50.23828125 C-138.84186523 49.79081543 -138.22279297 49.34334961 -137.58496094 48.88232422 C-114.84923186 32.53566617 -90.22878999 19.59830589 -63.4609375 11.23828125 C-62.62385254 10.97176758 -61.78676758 10.70525391 -60.92431641 10.43066406 C-47.31143203 6.14057429 -33.58592828 3.26530665 -19.4609375 1.23828125 C-18.27266357 1.06248535 -17.08438965 0.88668945 -15.86010742 0.70556641 C-10.58329415 0.05940792 -5.31047679 0.03784831 0 0 Z M-120.4609375 69.23828125 C-121.06728027 69.69058105 -121.67362305 70.14288086 -122.29833984 70.60888672 C-130.80780548 77.00290238 -138.77481306 83.88101587 -146.4609375 91.23828125 C-146.95835449 91.7084668 -147.45577148 92.17865234 -147.96826172 92.66308594 C-155.97228333 100.25829308 -162.87997397 108.39121971 -169.4609375 117.23828125 C-169.88616699 117.80272949 -170.31139648 118.36717773 -170.74951172 118.94873047 C-193.04135268 148.64547361 -206.88444772 182.7619611 -213.4609375 219.23828125 C-213.69425781 220.50800781 -213.92757812 221.77773437 -214.16796875 223.0859375 C-222.84336647 278.4462093 -208.99742193 340.05679866 -176.48291016 385.83056641 C-175.15849191 387.64593694 -173.81457858 389.44462039 -172.4609375 391.23828125 C-172.01540527 391.83640625 -171.56987305 392.43453125 -171.11083984 393.05078125 C-164.43975385 401.96156614 -157.16800399 410.214486 -149.4609375 418.23828125 C-148.605 419.13546875 -147.7490625 420.03265625 -146.8671875 420.95703125 C-133.38776525 434.77770469 -117.25469338 446.72650939 -100.4609375 456.23828125 C-99.35999756 456.86452393 -99.35999756 456.86452393 -98.23681641 457.50341797 C-45.70040872 487.03055906 16.53027817 494.87808368 74.73120117 479.12133789 C121.72367532 465.84336608 165.71741662 438.38577752 195.5390625 399.23828125 C195.9731543 398.66996582 196.40724609 398.10165039 196.85449219 397.51611328 C235.03950891 347.26634145 251.37389496 285.9889752 243.16015625 223.34863281 C237.88753678 186.78583223 223.73698602 150.83017785 201.5390625 121.23828125 C201.09208008 120.63725586 200.64509766 120.03623047 200.18457031 119.41699219 C193.51488999 110.50967973 186.24358159 102.25942441 178.5390625 94.23828125 C177.683125 93.34109375 176.8271875 92.44390625 175.9453125 91.51953125 C134.87128928 49.40565934 75.86094623 26.5625959 17.56103516 25.16699219 C-31.34376316 24.80350524 -81.20546813 39.76755795 -120.4609375 69.23828125 Z " fill="#000000" transform="translate(241.4609375,-0.23828125)"/>
<path d="M0 0 C2.45736397 1.95645373 4.86808878 3.95604455 7.26953125 5.98046875 C8.10097656 6.61855469 8.93242187 7.25664063 9.7890625 7.9140625 C26.98016834 22.23547193 36.07924432 45.19421198 38.26953125 66.98046875 C40.28693823 92.15602674 31.8473701 116.17293076 15.65673828 135.40039062 C-0.15708796 153.41290091 -22.14120797 163.59001008 -45.91796875 165.79296875 C-69.22420598 166.91991644 -92.92314739 160.48063716 -110.73046875 144.98046875 C-111.94476563 143.98080078 -111.94476563 143.98080078 -113.18359375 142.9609375 C-130.75015978 128.00780231 -141.47505963 105.86869461 -143.73046875 82.98046875 C-145.33927798 56.16698153 -137.19256386 32.28842317 -119.54296875 11.89453125 C-89.46668683 -20.22264123 -35.7287417 -26.4259792 0 0 Z M-99.73046875 29.98046875 C-100.354375 30.57085937 -100.97828125 31.16125 -101.62109375 31.76953125 C-112.69254728 43.09034184 -117.59099705 59.39962074 -118.16796875 74.85546875 C-117.67643317 92.45244247 -110.83324818 108.8446452 -98.5546875 121.48046875 C-84.66216675 133.7781358 -67.47618825 140.68954105 -48.79296875 139.85546875 C-29.93637634 138.03266482 -13.86966184 129.72597789 -1.48046875 115.35546875 C9.62707473 100.62143777 14.03339663 82.86956766 11.87109375 64.6171875 C9.37943255 50.33058464 2.75383403 37.96463695 -7.73046875 27.98046875 C-8.70113281 27.01560547 -8.70113281 27.01560547 -9.69140625 26.03125 C-23.08401382 13.43126614 -39.77155584 9.43585955 -57.57421875 9.70703125 C-74.06505629 10.3166852 -88.31309127 18.44162981 -99.73046875 29.98046875 Z " fill="#000000" transform="translate(308.73046875,89.01953125)"/>
<path d="M0 0 C1.76969902 -0.0098568 1.76969902 -0.0098568 3.57514954 -0.01991272 C7.47693239 -0.03960734 11.37870167 -0.05131567 15.28051758 -0.0612793 C16.63286165 -0.06533216 17.98520553 -0.06944923 19.33754921 -0.07362938 C25.70261481 -0.09267141 32.06766898 -0.10689699 38.43275756 -0.11524135 C45.72990082 -0.12496995 53.0267372 -0.15117784 60.32377261 -0.19174224 C65.99378499 -0.22215593 71.66371079 -0.23673434 77.333803 -0.24002236 C80.70533626 -0.24234696 84.07628395 -0.25301361 87.44777489 -0.27648354 C122.983038 -0.50834314 152.93891352 7.97619021 178.92504883 33.42700195 C198.5769049 53.37147054 210.15847249 80.10682843 210.61254883 108.17700195 C210.64993164 109.05356445 210.68731445 109.93012695 210.72583008 110.83325195 C210.78560742 115.24349111 210.68615483 118.23351745 207.83911133 121.73950195 C203.64920325 125.66518159 200.60277727 125.58285 195.00708008 125.5168457 C190.53955923 124.96864498 189.10856732 123.63694731 186.23754883 120.17700195 C184.64748083 115.67087286 183.98989469 111.44288679 183.65722656 106.72094727 C181.92461171 82.65879106 171.45814293 63.01822972 153.73754883 46.90356445 C145.22796212 39.78496788 136.05930697 34.53996059 125.61254883 30.86450195 C124.62158203 30.50074463 124.62158203 30.50074463 123.6105957 30.12963867 C108.57179827 25.1808251 91.74238533 25.87500422 76.11254883 25.91137695 C74.02905228 25.91002461 71.94555604 25.90807938 69.86206055 25.90557861 C65.52560377 25.9026541 61.18923019 25.90683791 56.8527832 25.91625977 C51.34639865 25.92765257 45.84020921 25.92107861 40.33383179 25.90911484 C36.04051289 25.9018234 31.74723884 25.90421726 27.45391846 25.90937042 C25.42571997 25.91068688 23.39751715 25.90913119 21.36932373 25.90441132 C-2.14887147 25.67256913 -2.14887147 25.67256913 -24.94995117 30.73950195 C-25.6842334 30.99707275 -26.41851562 31.25464355 -27.17504883 31.52001953 C-48.53077355 39.41495682 -65.82167098 55.73539762 -75.76245117 76.17700195 C-80.58803775 87.15704143 -82.64961534 98.09761129 -83.56225586 110.02954102 C-84.13898506 116.39891297 -85.02317997 119.7663397 -89.76245117 124.17700195 C-93.72528678 126.15841976 -98.45455355 125.73520841 -102.76245117 125.17700195 C-105.94097433 123.53251507 -108.14046881 121.42096668 -109.76245117 118.17700195 C-111.57405122 88.50833887 -102.37085444 60.75290894 -82.76245117 38.17700195 C-65.18752537 18.48136077 -43.66900763 6.41847101 -17.76245117 1.17700195 C-16.57564758 0.92168449 -16.57564758 0.92168449 -15.36486816 0.66120911 C-10.24030145 -0.02759285 -5.16536514 0.01253456 0 0 Z " fill="#000000" transform="translate(205.762451171875,280.822998046875)"/>
</svg>
