<?xml version="1.0" encoding="UTF-8"?>
<svg version="1.1" xmlns="http://www.w3.org/2000/svg" width="512" height="512">
<path d="M0 0 C0.87629059 0.00054382 1.75258118 0.00108765 2.65542603 0.00164795 C36.61256281 0.098184 68.70016318 8.37437297 98.625 24.375 C99.23085938 24.69726562 99.83671875 25.01953125 100.4609375 25.3515625 C148.74396925 51.28524331 183.10775363 96.62467551 198.82470703 148.66699219 C199.22085205 150.00745605 199.22085205 150.00745605 199.625 151.375 C199.96120361 152.51050293 199.96120361 152.51050293 200.30419922 153.66894531 C210.56560629 189.50429181 208.5886405 228.77188197 198.625 264.375 C198.42600098 265.10638184 198.22700195 265.83776367 198.02197266 266.59130859 C191.93427181 288.43423849 180.99882799 309.15456418 167.625 327.375 C167.16480469 328.00583496 166.70460938 328.63666992 166.23046875 329.28662109 C163.7405506 332.68514411 161.20900432 336.04711564 158.625 339.375 C162.45309863 343.95078985 166.41306159 348.30430073 170.64801025 352.50480652 C171.223423 353.07966256 171.79883575 353.6545186 172.39168525 354.24679452 C174.30074548 356.15284339 176.21335645 358.05528751 178.12597656 359.95776367 C179.50314021 361.33136749 180.88006676 362.70520906 182.2567749 364.07926941 C185.21169583 367.02766078 188.16811683 369.97453669 191.12567902 372.92027855 C195.80097746 377.57723748 200.47188624 382.23858242 205.14202881 386.90071106 C218.41906808 400.15363108 231.7020346 413.40060115 244.98925781 426.64331055 C252.33525396 433.96477401 259.6776642 441.28981463 267.0162313 448.61872464 C271.65967597 453.25562244 276.30759396 457.88797471 280.95885515 462.51703107 C283.84652543 465.39298888 286.73002256 468.27310216 289.61234283 471.15442085 C290.95139512 472.49132218 292.29217358 473.82649708 293.63478088 475.15982819 C295.46446669 476.9773577 297.28791545 478.80092388 299.10992432 480.62614441 C299.64473868 481.15445097 300.17955304 481.68275752 300.73057389 482.22707337 C305.2985371 486.82654141 306.9176428 489.77672427 307 496.25 C306.89863418 501.45766907 306.32448398 504.48080633 302.625 508.375 C297.97851746 512.78915841 293.73706934 512.84258261 287.625 512.90625 C281.24762665 511.77692347 276.83183417 506.86951321 272.43667603 502.42718506 C271.84351794 501.83573582 271.25035985 501.24428658 270.63922727 500.63491464 C268.66307298 498.66204111 266.6941282 496.68212993 264.72509766 494.70214844 C263.30594121 493.28242757 261.88634367 491.86314749 260.46633911 490.4442749 C256.61935095 486.59786006 252.7785562 482.7453143 248.93884706 478.89163494 C244.92256058 474.86283764 240.90060161 470.83971135 236.87924194 466.815979 C229.26807545 459.19859879 221.66202117 451.5761351 214.05779207 443.95183015 C205.39913303 435.27080881 196.73478764 426.59547245 188.06996083 417.92060804 C170.24864117 400.07838881 152.43447145 382.22904516 134.625 364.375 C131.77962973 366.06858035 129.01308084 367.74475816 126.3828125 369.7578125 C82.09328033 403.21992585 27.54164246 417.87675087 -27.60498047 410.77294922 C-64.14819754 405.52304231 -98.55113146 391.5843427 -127.375 368.375 C-127.88305176 367.96846191 -128.39110352 367.56192383 -128.91455078 367.14306641 C-142.13485508 356.49777683 -154.00132097 344.72048619 -164.10888672 331.06787109 C-165.30579576 329.46753032 -166.54437064 327.89859849 -167.78515625 326.33203125 C-193.78868545 292.2948914 -205.85762118 248.86271177 -205.75 206.5 C-205.74912384 205.65049774 -205.74824768 204.80099548 -205.74734497 203.92575073 C-205.55879347 148.17779056 -183.18227319 99.55245392 -145.375 59.375 C-144.75882813 58.71628906 -144.14265625 58.05757812 -143.5078125 57.37890625 C-129.61656478 42.98916878 -112.056907 31.53170184 -94.375 22.375 C-93.72660156 22.0351709 -93.07820313 21.6953418 -92.41015625 21.34521484 C-74.30016379 11.97194894 -54.50252104 5.60017001 -34.375 2.375 C-33.31474609 2.19984863 -32.25449219 2.02469727 -31.16210938 1.84423828 C-20.7525406 0.27665008 -10.51076337 -0.02464948 0 0 Z M-121.375 83.375 C-122.50421875 84.40947266 -122.50421875 84.40947266 -123.65625 85.46484375 C-152.38005219 112.57553386 -170.96777427 155.24516931 -172.49951172 194.57177734 C-172.85022137 210.37113817 -172.73167077 225.87022054 -169.375 241.375 C-169.12556641 242.54216553 -169.12556641 242.54216553 -168.87109375 243.73291016 C-161.74903626 275.88108632 -145.72520482 303.40633207 -123.375 327.375 C-122.34632812 328.48488281 -122.34632812 328.48488281 -121.296875 329.6171875 C-90.77817074 361.37924638 -46.11912065 378.43711379 -2.58081055 379.65820312 C41.35789113 380.21048596 85.14046519 364.12678083 117.109375 333.84765625 C118.81267379 332.17345108 120.50778067 330.49087771 122.1953125 328.80078125 C123.67260758 327.32586124 125.16825346 325.86864678 126.6953125 324.4453125 C154.66721497 297.96240864 172.43566065 254.63208237 173.625 216.375 C173.65078125 215.67568359 173.6765625 214.97636719 173.703125 214.25585938 C175.23992013 167.11466872 158.98094347 122.42777229 126.875 87.7578125 C126.1325 86.97148438 125.39 86.18515625 124.625 85.375 C123.903125 84.58867188 123.18125 83.80234375 122.4375 82.9921875 C94.03926106 53.15484861 50.79232118 34.2216365 9.6875 33.13671875 C-40.63368677 32.44181309 -84.91854445 48.25885532 -121.375 83.375 Z " fill="#000000" transform="translate(205.375,-0.375)"/>
</svg>
